<svg
    xmlns="http://www.w3.org/2000/svg"
    width="248"
    height="256"
    viewBox="0 0 65.616667 67.733331"
>
    <style>
        .dice-face {
            stroke-width: 0.22048;
            fill: #000000;
        }

        .dice-pip {
            stroke-width: 0.22048;
            fill: #ffffff;
        }

        @media (prefers-color-scheme: dark) {
            .dice-face {
                stroke-width: 0.22048;
                fill: #ffffff;
            }

            .dice-pip {
                stroke-width: 0.22048;
                fill: #000000;
            }
        }
    </style>

    <g transform="translate(-65.193329,-107.52666)">
    <path
        class="dice-face"
        d="M 97.891481,109.96237 128.85533,124.71808 97.938137,139.85146 67.328878,124.79144 Z"
    />
    <path
        class="dice-face"
        d="m 66.157276,126.45404 v 31.77173 l 30.705544,15.24928 -0.153434,-32.00974 z"
    />
    <path
        class="dice-face"
        d="m 129.9855,126.91436 -0.23044,31.57782 -30.775587,14.88466 v -31.75809 z"
    />
    <path
        class="dice-pip"
        d="m 117.40836,145.89725 -0.0461,6.31557 -6.15512,2.97693 v -6.35162 z"
    />
    <path
        class="dice-pip"
        d="m 86.488525,141.19528 v 6.35435 l 6.141111,3.04986 -0.0307,-6.40195 z"
    />
    <path
        class="dice-pip"
        d="m 70.234039,149.11931 v 6.35435 l 6.141109,3.04986 -0.03069,-6.40195 z"
    />
    <path
        class="dice-pip"
        d="m 97.888526,129.57612 6.192774,2.95114 -6.183444,3.02668 -6.12185,-3.012 z"
    />
    <path
        class="dice-pip"
        d="m 114.08917,121.91797 6.19277,2.95114 -6.18344,3.02668 -6.12185,-3.012 z"
    />
    <path
        class="dice-pip"
        d="m 97.897856,114.11605 6.192774,2.95114 -6.183444,3.02668 -6.121855,-3.012 z"
    />
    <path
        class="dice-pip"
        d="m 81.680515,121.90329 6.19277,2.95114 -6.18344,3.02668 -6.121857,-3.012 z"
    />
  </g>
</svg>
